<svg width="16" height="16" viewBox="0 0 27 26" fill="none" xmlns="http://www.w3.org/2000/svg">
<g clip-path="url(#clip0_195_14359)">
<path d="M7.00759 12.9995L12.2076 17.3329L19.1409 8.66621M13.0743 25.1329C11.4809 25.1329 9.90311 24.819 8.43103 24.2093C6.95894 23.5995 5.62137 22.7058 4.49469 21.5791C3.368 20.4524 2.47427 19.1149 1.86451 17.6428C1.25476 16.1707 0.940918 14.5929 0.940918 12.9995C0.940918 11.4062 1.25476 9.8284 1.86451 8.35632C2.47427 6.88424 3.368 5.54667 4.49469 4.41998C5.62137 3.2933 6.95894 2.39956 8.43103 1.78981C9.90311 1.18005 11.4809 0.866211 13.0743 0.866211C16.2922 0.866211 19.3784 2.14454 21.6538 4.41998C23.9293 6.69542 25.2076 9.78158 25.2076 12.9995C25.2076 16.2175 23.9293 19.3037 21.6538 21.5791C19.3784 23.8545 16.2922 25.1329 13.0743 25.1329Z" stroke="#FC7857"/>
</g>
<defs>
<clipPath id="clip0_195_14359">
<rect width="26" height="26" fill="white" transform="translate(0.0742188)"/>
</clipPath>
</defs>
</svg>
