<svg width="14" height="14" viewBox="0 0 23 16" fill="none" xmlns="http://www.w3.org/2000/svg">
<path d="M22.088 7.77219C22.0561 7.69906 21.2761 5.96938 19.5342 4.2275C17.918 2.61313 15.1411 0.6875 11.0742 0.6875C7.00733 0.6875 4.23045 2.61313 2.6142 4.2275C0.872329 5.96938 0.092329 7.69625 0.060454 7.77219C0.0284031 7.84419 0.0118408 7.92212 0.0118408 8.00094C0.0118408 8.07975 0.0284031 8.15768 0.060454 8.22969C0.092329 8.30187 0.872329 10.0316 2.6142 11.7734C4.23045 13.3878 7.00733 15.3125 11.0742 15.3125C15.1411 15.3125 17.918 13.3878 19.5342 11.7734C21.2761 10.0316 22.0561 8.30469 22.088 8.22969C22.12 8.15768 22.1366 8.07975 22.1366 8.00094C22.1366 7.92212 22.12 7.84419 22.088 7.77219ZM11.0742 14.1875C8.13233 14.1875 5.56358 13.1169 3.43827 11.0066C2.54737 10.1211 1.79346 9.10778 1.20139 8C1.7933 6.8924 2.54723 5.87936 3.43827 4.99438C5.56358 2.88313 8.13233 1.8125 11.0742 1.8125C14.0161 1.8125 16.5848 2.88313 18.7101 4.99438C19.6012 5.87936 20.3551 6.8924 20.947 8C20.3498 9.14469 17.3555 14.1875 11.0742 14.1875ZM11.0742 3.6875C10.2213 3.6875 9.3875 3.94042 8.67831 4.41429C7.96912 4.88815 7.41638 5.56167 7.08997 6.34968C6.76357 7.13768 6.67817 8.00478 6.84457 8.84133C7.01097 9.67787 7.42169 10.4463 8.02481 11.0494C8.62792 11.6525 9.39633 12.0632 10.2329 12.2296C11.0694 12.396 11.9365 12.3106 12.7245 11.9842C13.5125 11.6578 14.1861 11.1051 14.6599 10.3959C15.1338 9.68671 15.3867 8.85293 15.3867 8C15.3852 6.85671 14.9304 5.76067 14.122 4.95225C13.3135 4.14382 12.2175 3.68899 11.0742 3.6875ZM11.0742 11.1875C10.4438 11.1875 9.82751 11.0006 9.30332 10.6503C8.77914 10.3001 8.37059 9.80224 8.12934 9.2198C7.88808 8.63736 7.82496 7.99646 7.94795 7.37815C8.07094 6.75984 8.37452 6.19188 8.8203 5.7461C9.26608 5.30032 9.83404 4.99674 10.4524 4.87375C11.0707 4.75076 11.7116 4.81388 12.294 5.05513C12.8764 5.29639 13.3743 5.70494 13.7245 6.22912C14.0748 6.7533 14.2617 7.36957 14.2617 8C14.2617 8.84538 13.9259 9.65613 13.3281 10.2539C12.7303 10.8517 11.9196 11.1875 11.0742 11.1875Z" fill="#666666"/>
</svg>
